<?xml version="1.0" encoding="utf-8"?>
<!-- Generator: Adobe Illustrator 27.8.0, SVG Export Plug-In . SVG Version: 6.00 Build 0)  -->
<svg version="1.0" id="katman_1" xmlns="http://www.w3.org/2000/svg" xmlns:xlink="http://www.w3.org/1999/xlink" x="0px" y="0px"
	 viewBox="0 0 281.92 281.98" style="enable-background:new 0 0 281.92 281.98;" xml:space="preserve">
<style type="text/css">
	.st0{fill:#55BDBF;}
	.st1{fill:#73B732;}
	.st2{fill:#F8B62C;}
</style>
<path class="st0" d="M178.82,155.79c-60.98-13.39-129.97-28.5-178.17-1.3c0.97,10.14,3.03,20.15,6.15,29.86
	c22.55,3.58,53.85,0,88.24-4c60.44-6.99,128.36-14.8,176.74,13.25c3.36-8.35,5.91-17.01,7.61-25.85
	c-5.51,0.92-11.08,1.36-16.66,1.33C239.24,169.21,210.23,162.7,178.82,155.79L178.82,155.79z"/>
<path class="st1" d="M96.33,191.48c-32.11,3.69-61.74,7.1-85.06,4.68c2.83,6.61,6.15,13,9.92,19.11
	c48.29-13.7,107.13-0.79,160.1,10.83c22.55,4.96,43.78,9.61,62.02,11.78c9.58-10.1,17.6-21.57,23.79-34.03
	C221.9,176.99,155.39,184.66,96.33,191.48z"/>
<path class="st1" d="M220.04,257.71c4.51-3.05,8.84-6.36,12.97-9.92c-16.69-2.51-34.99-6.51-54.19-10.71
	c-50.27-11.05-105.97-23.26-151.02-11.98c11.92,16.01,27.09,29.33,44.52,39.07c7.39-0.79,14.97-1.66,22.72-2.57
	C136.08,256.86,180.57,251.73,220.04,257.71z"/>
<path class="st2" d="M183.25,24.42c5.95-3.64,11.95-7.33,17.99-10.88C140.86-15.01,68.75,2.73,28.5,56.02
	C89.68,81.82,137.15,52.67,183.25,24.42z"/>
<path class="st0" d="M181.22,144.85c40.57,8.88,76.85,16.92,99.91,11.11c0.53-4.96,0.8-9.95,0.79-14.94
	c-0.02-49.78-26.3-95.86-69.13-121.23c-7.87,4.51-15.79,9.36-23.77,14.27c-33.66,20.66-70.48,43.22-113.47,43.22
	c-18.48-0.12-36.74-4.14-53.56-11.78C7.61,88.06-0.02,114.26,0,141.02v1.1C51.45,116.38,120.24,131.46,181.22,144.85z"/>
<path class="st1" d="M96.33,272.73l-4.34,0.51c36.57,13.49,77.09,11.29,111.98-6.09C169.49,264.3,131.6,268.67,96.33,272.73z"/>
</svg>
